<svg width="216" height="93" viewBox="0 0 216 93" fill="none" xmlns="http://www.w3.org/2000/svg">
<mask id="path-1-inside-1_33_7" fill="white">
<rect x="11.5776" y="13.2102" width="203.804" height="79.7898" rx="5"/>
</mask>
<rect x="11.5776" y="13.2102" width="203.804" height="79.7898" rx="5" fill="#3B4CB1" stroke="#3B4CB1" stroke-width="16" mask="url(#path-1-inside-1_33_7)"/>
<mask id="path-2-inside-2_33_7" fill="white">
<rect width="203.804" height="79.7898" rx="5"/>
</mask>
<rect width="203.804" height="79.7898" rx="5" fill="#FAFAFA" stroke="#3B4CB1" stroke-width="16" mask="url(#path-2-inside-2_33_7)"/>
<path d="M62.05 45.38C61.69 45.62 61.2 45.89 60.58 46.19C59.96 46.49 59.23 46.74 58.39 46.94C57.57 47.14 56.67 47.24 55.69 47.24C54.01 47.22 52.49 46.92 51.13 46.34C49.79 45.76 48.65 44.97 47.71 43.97C46.77 42.97 46.04 41.82 45.52 40.52C45.02 39.2 44.77 37.8 44.77 36.32C44.77 34.7 45.03 33.21 45.55 31.85C46.09 30.47 46.84 29.28 47.8 28.28C48.76 27.26 49.89 26.47 51.19 25.91C52.51 25.35 53.95 25.07 55.51 25.07C56.81 25.07 57.99 25.25 59.05 25.61C60.11 25.95 61.02 26.36 61.78 26.84L60.61 29.54C60.01 29.14 59.28 28.76 58.42 28.4C57.58 28.04 56.64 27.86 55.6 27.86C54.54 27.86 53.54 28.07 52.6 28.49C51.66 28.91 50.83 29.5 50.11 30.26C49.39 31.02 48.82 31.91 48.4 32.93C48 33.93 47.8 35.01 47.8 36.17C47.8 37.35 47.98 38.45 48.34 39.47C48.72 40.47 49.25 41.34 49.93 42.08C50.63 42.82 51.47 43.4 52.45 43.82C53.43 44.24 54.53 44.45 55.75 44.45C56.85 44.45 57.83 44.28 58.69 43.94C59.55 43.6 60.26 43.22 60.82 42.8L62.05 45.38ZM65.1801 40.67C65.1801 39.43 65.4701 38.31 66.0501 37.31C66.6501 36.31 67.4701 35.52 68.5101 34.94C69.5501 34.36 70.7301 34.07 72.0501 34.07C73.4101 34.07 74.6001 34.36 75.6201 34.94C76.6401 35.52 77.4301 36.31 77.9901 37.31C78.5501 38.31 78.8301 39.43 78.8301 40.67C78.8301 41.91 78.5501 43.04 77.9901 44.06C77.4301 45.06 76.6301 45.85 75.5901 46.43C74.5701 47.01 73.3801 47.3 72.0201 47.3C70.7001 47.3 69.5201 47.03 68.4801 46.49C67.4601 45.93 66.6501 45.16 66.0501 44.18C65.4701 43.18 65.1801 42.01 65.1801 40.67ZM67.9701 40.7C67.9701 41.5 68.1501 42.23 68.5101 42.89C68.8701 43.53 69.3501 44.04 69.9501 44.42C70.5701 44.8 71.2501 44.99 71.9901 44.99C72.7701 44.99 73.4601 44.8 74.0601 44.42C74.6801 44.04 75.1601 43.53 75.5001 42.89C75.8401 42.23 76.0101 41.5 76.0101 40.7C76.0101 39.9 75.8401 39.18 75.5001 38.54C75.1601 37.88 74.6801 37.36 74.0601 36.98C73.4601 36.58 72.7701 36.38 71.9901 36.38C71.2301 36.38 70.5401 36.58 69.9201 36.98C69.3201 37.38 68.8401 37.91 68.4801 38.57C68.1401 39.21 67.9701 39.92 67.9701 40.7ZM85.0977 34.58L85.3377 37.37L85.2177 37.13C85.6777 36.19 86.3277 35.45 87.1677 34.91C88.0277 34.37 89.0077 34.1 90.1077 34.1C90.8077 34.1 91.4277 34.21 91.9677 34.43C92.5077 34.65 92.9477 34.97 93.2877 35.39C93.6477 35.79 93.8777 36.29 93.9777 36.89L93.8277 36.98C94.3077 36.08 94.9677 35.38 95.8077 34.88C96.6677 34.36 97.5677 34.1 98.5077 34.1C99.7277 34.1 100.688 34.45 101.388 35.15C102.108 35.83 102.478 36.72 102.498 37.82V47H99.7077V38.81C99.6877 38.17 99.5277 37.64 99.2277 37.22C98.9477 36.78 98.4477 36.54 97.7277 36.5C97.0077 36.5 96.3577 36.72 95.7777 37.16C95.2177 37.6 94.7777 38.17 94.4577 38.87C94.1377 39.55 93.9677 40.29 93.9477 41.09V47H91.1577V38.81C91.1377 38.17 90.9677 37.64 90.6477 37.22C90.3477 36.78 89.8377 36.54 89.1177 36.5C88.3777 36.5 87.7277 36.72 87.1677 37.16C86.6077 37.6 86.1677 38.17 85.8477 38.87C85.5477 39.57 85.3977 40.32 85.3977 41.12V47H82.6077V34.58H85.0977ZM114.684 47.3C113.744 47.3 112.834 47.08 111.954 46.64C111.094 46.2 110.424 45.61 109.944 44.87L110.124 44V52.97H107.364V34.4H109.764L110.154 37.58L109.854 36.71C110.454 35.95 111.214 35.32 112.134 34.82C113.054 34.32 114.084 34.07 115.224 34.07C116.384 34.07 117.424 34.35 118.344 34.91C119.284 35.47 120.024 36.25 120.564 37.25C121.104 38.25 121.374 39.42 121.374 40.76C121.374 42.1 121.084 43.26 120.504 44.24C119.924 45.22 119.124 45.98 118.104 46.52C117.104 47.04 115.964 47.3 114.684 47.3ZM114.144 45.08C114.944 45.08 115.674 44.9 116.334 44.54C117.014 44.16 117.554 43.65 117.954 43.01C118.354 42.35 118.554 41.61 118.554 40.79C118.554 39.95 118.364 39.21 117.984 38.57C117.604 37.91 117.094 37.39 116.454 37.01C115.834 36.63 115.134 36.44 114.354 36.44C113.634 36.44 112.984 36.58 112.404 36.86C111.824 37.14 111.344 37.53 110.964 38.03C110.584 38.51 110.314 39.07 110.154 39.71V41.78C110.254 42.42 110.494 42.99 110.874 43.49C111.254 43.99 111.724 44.38 112.284 44.66C112.864 44.94 113.484 45.08 114.144 45.08ZM125.147 34.58H127.937V47H125.147V34.58ZM124.937 30.08C124.937 29.64 125.107 29.27 125.447 28.97C125.807 28.67 126.197 28.52 126.617 28.52C127.037 28.52 127.407 28.67 127.727 28.97C128.067 29.27 128.237 29.64 128.237 30.08C128.237 30.54 128.067 30.92 127.727 31.22C127.407 31.5 127.037 31.64 126.617 31.64C126.197 31.64 125.807 31.49 125.447 31.19C125.107 30.89 124.937 30.52 124.937 30.08ZM132.764 23.78H135.554V47H132.764V23.78ZM146.141 47.3C144.721 47.3 143.501 47.02 142.481 46.46C141.461 45.88 140.671 45.1 140.111 44.12C139.571 43.12 139.301 41.98 139.301 40.7C139.301 39.48 139.611 38.37 140.231 37.37C140.851 36.37 141.681 35.57 142.721 34.97C143.761 34.37 144.921 34.07 146.201 34.07C147.841 34.07 149.201 34.55 150.281 35.51C151.361 36.47 152.091 37.79 152.471 39.47L142.241 43.07L141.581 41.42L149.981 38.36L149.381 38.75C149.141 38.09 148.741 37.52 148.181 37.04C147.621 36.54 146.891 36.29 145.991 36.29C145.231 36.29 144.551 36.48 143.951 36.86C143.351 37.22 142.881 37.72 142.541 38.36C142.201 39 142.031 39.73 142.031 40.55C142.031 41.41 142.211 42.17 142.571 42.83C142.931 43.47 143.421 43.98 144.041 44.36C144.681 44.72 145.401 44.9 146.201 44.9C146.741 44.9 147.261 44.8 147.761 44.6C148.281 44.4 148.761 44.14 149.201 43.82L150.491 45.89C149.871 46.31 149.171 46.65 148.391 46.91C147.631 47.17 146.881 47.3 146.141 47.3Z" fill="#3B4CB1"/>
</svg>
